<?xml version="1.0" encoding="UTF-8" standalone="no"?>
<!-- Created with Inkscape (http://www.inkscape.org/) -->

<svg
   xmlns:dc="http://purl.org/dc/elements/1.1/"
   xmlns:cc="http://creativecommons.org/ns#"
   xmlns:rdf="http://www.w3.org/1999/02/22-rdf-syntax-ns#"
   xmlns:svg="http://www.w3.org/2000/svg"
   xmlns="http://www.w3.org/2000/svg"
   xmlns:sodipodi="http://sodipodi.sourceforge.net/DTD/sodipodi-0.dtd"
   xmlns:inkscape="http://www.inkscape.org/namespaces/inkscape"
   width="32"
   height="32"
   viewBox="0 0 32 32"
   id="svg5386"
   version="1.1"
   inkscape:version="0.92.3 (2405546, 2018-03-11)"
   sodipodi:docname="menu.svg">
  <defs
     id="defs5388" />
  <sodipodi:namedview
     id="base"
     pagecolor="#000000"
     bordercolor="#666666"
     borderopacity="1.0"
     inkscape:pageopacity="0"
     inkscape:pageshadow="2"
     inkscape:zoom="31.999999"
     inkscape:cx="18.105769"
     inkscape:cy="16.662378"
     inkscape:document-units="px"
     inkscape:current-layer="layer1"
     showgrid="false"
     units="px"
     inkscape:snap-bbox="true"
     inkscape:bbox-paths="true"
     inkscape:bbox-nodes="true"
     inkscape:snap-bbox-edge-midpoints="true"
     inkscape:window-width="1920"
     inkscape:window-height="983"
     inkscape:window-x="0"
     inkscape:window-y="27"
     inkscape:window-maximized="1">
    <inkscape:grid
       type="xygrid"
       id="grid5954" />
  </sodipodi:namedview>
  <metadata
     id="metadata5391">
    <rdf:RDF>
      <cc:Work
         rdf:about="">
        <dc:format>image/svg+xml</dc:format>
        <dc:type
           rdf:resource="http://purl.org/dc/dcmitype/StillImage" />
        <dc:title />
      </cc:Work>
    </rdf:RDF>
  </metadata>
  <g
     inkscape:label="Ebene 1"
     inkscape:groupmode="layer"
     id="layer1"
     transform="translate(0,-1020.3622)">
    <rect
       style="display:inline;opacity:1;fill:#32343d;fill-opacity:1;stroke:#42444e;stroke-width:1;stroke-linecap:round;stroke-linejoin:miter;stroke-miterlimit:4;stroke-dasharray:none;stroke-dashoffset:0;stroke-opacity:1"
       id="rect4164-4-3"
       width="23"
       height="21.999889"
       x="4.5"
       y="1024.8622"
       rx="2.0000005"
       ry="1.9999999" />
    <rect
       style="display:inline;opacity:1;fill:#373737;fill-opacity:1;stroke:none;stroke-width:1;stroke-linecap:round;stroke-linejoin:miter;stroke-miterlimit:4;stroke-dasharray:none;stroke-dashoffset:0;stroke-opacity:1"
       id="rect4164"
       width="22"
       height="20.999971"
       x="5"
       y="1025.3622"
       rx="1.4"
       ry="1.4" />
    <g
       transform="translate(-425.99995,658.36226)"
       id="g4271"
       style="display:inline;opacity:0.65">
      <rect
         ry="8"
         rx="8"
         y="362.49994"
         x="426.49994"
         height="31"
         width="31.000011"
         id="rect4164-4-7-5-3-8-8"
         style="display:inline;opacity:0.02000002;fill:none;fill-opacity:1;stroke:#000000;stroke-width:0.99999988;stroke-linecap:round;stroke-linejoin:miter;stroke-miterlimit:4;stroke-dasharray:none;stroke-dashoffset:0;stroke-opacity:1" />
      <rect
         ry="6.999999"
         rx="7"
         y="363.49997"
         x="427.49994"
         height="28.999996"
         width="29.000011"
         id="rect4164-4-7-5-3-8"
         style="display:inline;opacity:0.07000002;fill:none;fill-opacity:1;stroke:#000000;stroke-width:0.99999982;stroke-linecap:round;stroke-linejoin:miter;stroke-miterlimit:4;stroke-dasharray:none;stroke-dashoffset:0;stroke-opacity:1" />
      <rect
         ry="6"
         rx="6"
         y="364.49994"
         x="428.49994"
         height="26.999998"
         width="27.000011"
         id="rect4164-4-7-5-3"
         style="display:inline;opacity:0.12999998;fill:none;fill-opacity:1;stroke:#000000;stroke-width:0.99999988;stroke-linecap:round;stroke-linejoin:miter;stroke-miterlimit:4;stroke-dasharray:none;stroke-dashoffset:0;stroke-opacity:1" />
      <rect
         ry="5"
         rx="4.9999995"
         y="365.49997"
         x="429.49997"
         height="24.999998"
         width="24.999981"
         id="rect4164-4-7-5"
         style="display:inline;opacity:0.2;fill:none;fill-opacity:1;stroke:#000000;stroke-width:1;stroke-linecap:round;stroke-linejoin:miter;stroke-miterlimit:4;stroke-dasharray:none;stroke-dashoffset:0;stroke-opacity:1" />
      <path
         id="rect4164-4-7"
         d="M 431.64844,388.30469 C 432.37319,389.0416 433.37997,389.5 434.5,389.5 l 15.00023,0 c 1.12003,0 2.12681,-0.4584 2.85156,-1.19531 -0.2591,0.12217 -0.5451,0.19531 -0.85156,0.19531 l -19.00023,0 c -0.30646,0 -0.59246,-0.0731 -0.85156,-0.19531 z"
         style="display:inline;opacity:0.25;fill:none;fill-opacity:1;stroke:#000000;stroke-width:1;stroke-linecap:round;stroke-linejoin:miter;stroke-miterlimit:4;stroke-dasharray:none;stroke-dashoffset:0;stroke-opacity:1"
         inkscape:connector-curvature="0"
         sodipodi:nodetypes="csscssc"
         transform="translate(-6.1035156e-5,0)" />
    </g>
    <path
       style="fill:#666666;fill-opacity:1;stroke-width:0.03125"
       d="M 6.1183708,26.960314 C 5.1604555,26.818917 4.3424763,26.079918 4.088739,25.126653 4.035265,24.925758 4.022577,24.770016 4.014274,24.212622 4.006054,23.6609 4.009044,23.599426 4.030976,23.868872 c 0.078559,0.965045 0.4213123,1.789293 1.0663874,2.564429 0.084939,0.102064 0.1669493,0.185571 0.1822456,0.185571 0.015296,0 0.1417815,-0.161718 0.2810782,-0.359375 0.1392967,-0.197656 0.2651258,-0.359375 0.2796203,-0.359375 0.014494,0 0.087887,0.02461 0.1630951,0.05469 0.1292185,0.05168 0.6791608,0.05469 9.9961164,0.05469 9.28353,0 9.867589,-0.0032 10.000001,-0.05423 0.07734,-0.02983 0.150496,-0.05444 0.162562,-0.05469 0.01207,-2.5e-4 0.137597,0.161264 0.278958,0.35892 0.14136,0.197657 0.267717,0.359375 0.280792,0.359375 0.03999,0 0.373284,-0.408055 0.536019,-0.65625 0.397701,-0.606552 0.640271,-1.32494 0.722803,-2.140625 0.007,-0.06875 0.0081,0.142188 0.0026,0.46875 -0.01335,0.788176 -0.0968,1.112086 -0.406547,1.578125 -0.334681,0.503551 -0.804112,0.84394 -1.435343,1.040784 l -0.219956,0.06859 -9.812501,0.0042 c -5.396875,0.0023 -9.8926102,-0.0077 -9.9905228,-0.0221 z"
       id="path5115"
       inkscape:connector-curvature="0"
       transform="translate(0,1020.3622)" />
    <path
       style="fill:#666666;fill-opacity:1;stroke-width:0.03125"
       d="M 5.0906333,26.412562 C 4.6953634,25.934738 4.4389233,25.47513 4.2487201,24.903631 3.9970467,24.147435 4.0150962,24.912042 4.0155254,15.025122 4.0159581,5.0538273 3.9893708,6.0146094 4.2814423,5.4157465 4.5832754,4.7968685 5.0869787,4.359187 5.7651436,4.126518 l 0.25,-0.085771 h 9.9687504 9.968751 l 0.234375,0.072772 c 0.693231,0.2152451 1.246485,0.6915838 1.548796,1.3334777 0.27089,0.5751771 0.244651,-0.3985366 0.256418,9.5156253 0.0071,5.967204 6.2e-5,8.852162 -0.02186,8.96875 -0.110277,0.586752 -0.143411,0.731425 -0.225446,0.984375 -0.176536,0.544333 -0.508664,1.127392 -0.897593,1.575749 l -0.119925,0.138249 -0.274611,-0.365603 c -0.151037,-0.201081 -0.269108,-0.36961 -0.262382,-0.37451 0.0067,-0.0049 0.08531,-0.05475 0.174643,-0.110783 0.283295,-0.1777 0.490852,-0.456365 0.585332,-0.785864 0.04481,-0.156256 0.04877,-1.070028 0.04152,-9.564123 l -0.008,-9.3913617 -0.115307,-0.2327518 C 26.679296,5.4226543 26.394795,5.176014 26.00404,5.0552505 25.808432,4.9947976 25.657492,4.9938715 15.999519,4.9938715 c -9.657973,0 -9.8089133,9.261e-4 -10.0045212,0.061379 C 5.6092483,5.174467 5.3170102,5.4277948 5.1303796,5.8047484 l -0.115236,0.2327518 -0.00824,9.3922488 c -0.00822,9.364502 -0.00805,9.392868 0.055276,9.602163 0.085054,0.281097 0.3003207,0.564522 0.5526148,0.727585 0.1063706,0.06875 0.1885117,0.140389 0.1825358,0.159196 -0.014181,0.04463 -0.4744836,0.658549 -0.5104169,0.680757 -0.015169,0.0094 -0.1034956,-0.07473 -0.19628,-0.186888 z"
       id="path5117"
       inkscape:connector-curvature="0"
       transform="translate(0,1020.3622)" />
    <path
       style="fill:#666666;fill-opacity:1;stroke-width:0.03125"
       d="m 4.2807685,25.071997 c -0.020613,-0.06246 -0.030448,-0.120593 -0.021854,-0.129187 0.00859,-0.0086 0.032491,0.03548 0.053104,0.09794 0.020614,0.06246 0.030448,0.120594 0.021854,0.129188 -0.00859,0.0086 -0.032491,-0.03548 -0.053104,-0.09794 z"
       id="path5119"
       inkscape:connector-curvature="0"
       transform="translate(0,1020.3622)" />
    <path
       style="fill:#5a5a5a;fill-opacity:1;stroke-width:0.03125"
       d="M 9.5620188,26.96557 5.9526436,26.946998 5.7262321,26.862973 C 5.0622928,26.616576 4.5773978,26.194989 4.2824199,25.607665 4.0949169,25.234332 4.0371787,24.951059 4.0235531,24.337622 c -0.0063,-0.283593 -0.00103,-0.473437 0.011703,-0.421875 0.016312,0.06604 0.019351,0.04757 0.01028,-0.0625 -0.00708,-0.08594 -0.018789,-3.404687 -0.026016,-7.375 -0.013146,-7.221789 0.00652,-10.2104616 0.069518,-10.5625004 0.018453,-0.103125 0.091837,-0.3 0.1630756,-0.4375 C 4.6045119,4.7980695 5.0418557,4.4005983 5.720065,4.1441279 L 5.9838936,4.044359 14.608894,4.033518 c 4.74375,-0.00596 9.271875,7.215e-4 10.0625,0.014854 l 1.437501,0.025695 0.272115,0.1128735 c 0.546067,0.2265096 0.955454,0.5812303 1.255874,1.0881754 0.223076,0.3764302 0.264517,0.5095722 0.304163,0.9772026 0.0412,0.4859446 0.06749,17.3299925 0.0284,18.1946795 -0.02638,0.583583 -0.07408,0.820172 -0.226318,1.122502 -0.326931,0.649264 -0.821902,1.072482 -1.531444,1.309439 l -0.240956,0.08047 -6.399669,0.01237 c -3.519819,0.0068 -8.023889,0.004 -10.0090452,-0.0062 z M 26.196719,25.874123 c 0.295714,-0.145581 0.525928,-0.379996 0.670463,-0.682695 l 0.116713,-0.244431 V 15.493218 6.0394386 L 26.876867,5.8213426 C 26.743788,5.5501596 26.458989,5.2574494 26.210585,5.1365528 26.100034,5.0827482 25.943904,5.039065 25.804335,5.0228892 c -0.296196,-0.034329 -19.3134361,-0.034329 -19.6096318,0 -0.1395689,0.016176 -0.2956986,0.059859 -0.40625,0.1136636 -0.2308164,0.112337 -0.5249941,0.4088084 -0.6646364,0.6698188 l -0.1086732,0.203125 -0.00897,9.2812504 c -0.00594,6.151467 0.00173,9.36289 0.022757,9.523349 0.050628,0.386387 0.2346877,0.688656 0.5638417,0.925958 0.1119891,0.08074 0.2668979,0.165552 0.3442416,0.188476 0.077344,0.02292 0.1546875,0.04595 0.171875,0.05117 0.017188,0.0052 4.4963901,0.007 9.9537851,0.004 l 9.922535,-0.0055 z"
       id="path5121"
       inkscape:connector-curvature="0"
       transform="translate(0,1020.3622)" />
  </g>
</svg>
