<?xml version="1.0" encoding="UTF-8" standalone="no"?>
<!-- Created with Inkscape (http://www.inkscape.org/) -->

<svg
   xmlns:dc="http://purl.org/dc/elements/1.1/"
   xmlns:cc="http://creativecommons.org/ns#"
   xmlns:rdf="http://www.w3.org/1999/02/22-rdf-syntax-ns#"
   xmlns:svg="http://www.w3.org/2000/svg"
   xmlns="http://www.w3.org/2000/svg"
   xmlns:sodipodi="http://sodipodi.sourceforge.net/DTD/sodipodi-0.dtd"
   xmlns:inkscape="http://www.inkscape.org/namespaces/inkscape"
   width="34.133335"
   height="34.133335"
   viewBox="0 0 32 32"
   id="svg5386"
   version="1.1"
   inkscape:version="0.92.3 (2405546, 2018-03-11)"
   sodipodi:docname="osd.svg">
  <defs
     id="defs5388" />
  <sodipodi:namedview
     id="base"
     pagecolor="#ffffff"
     bordercolor="#666666"
     borderopacity="1.0"
     inkscape:pageopacity="0.0"
     inkscape:pageshadow="2"
     inkscape:zoom="16"
     inkscape:cx="23.210075"
     inkscape:cy="11.575503"
     inkscape:document-units="px"
     inkscape:current-layer="layer1"
     showgrid="false"
     units="px"
     inkscape:snap-bbox="true"
     inkscape:bbox-paths="true"
     inkscape:bbox-nodes="true"
     inkscape:snap-bbox-edge-midpoints="true"
     inkscape:window-width="1920"
     inkscape:window-height="983"
     inkscape:window-x="0"
     inkscape:window-y="27"
     inkscape:window-maximized="1">
    <inkscape:grid
       type="xygrid"
       id="grid5954"
       originx="0"
       originy="0"
       spacingx="1"
       spacingy="1" />
  </sodipodi:namedview>
  <metadata
     id="metadata5391">
    <rdf:RDF>
      <cc:Work
         rdf:about="">
        <dc:format>image/svg+xml</dc:format>
        <dc:type
           rdf:resource="http://purl.org/dc/dcmitype/StillImage" />
        <dc:title />
      </cc:Work>
    </rdf:RDF>
  </metadata>
  <g
     inkscape:label="Ebene 1"
     inkscape:groupmode="layer"
     id="layer1"
     transform="translate(0,-1020.3622)">
    <rect
       style="display:inline;opacity:0.85;fill:none;fill-opacity:1;stroke:#0f1116;stroke-width:1;stroke-linecap:round;stroke-linejoin:miter;stroke-miterlimit:4;stroke-dasharray:none;stroke-dashoffset:0;stroke-opacity:1"
       id="rect4164-4-3"
       width="23"
       height="21.999889"
       x="4.5"
       y="1024.8622"
       rx="2.0000005"
       ry="1.9999999" />
    <rect
       style="display:inline;opacity:0.95;fill:#373737;fill-opacity:1;stroke:none;stroke-width:1;stroke-linecap:round;stroke-linejoin:miter;stroke-miterlimit:4;stroke-dasharray:none;stroke-dashoffset:0;stroke-opacity:1"
       id="rect4164"
       width="22"
       height="20.999971"
       x="5"
       y="1025.3622"
       rx="1.4"
       ry="1.4" />
    <g
       transform="translate(-425.99995,658.36226)"
       id="g4271"
       style="display:inline;opacity:0.65">
      <rect
         ry="8"
         rx="8"
         y="362.49994"
         x="426.49994"
         height="31"
         width="31.000011"
         id="rect4164-4-7-5-3-8-8"
         style="display:inline;opacity:0.02000002;fill:none;fill-opacity:1;stroke:#000000;stroke-width:0.99999988;stroke-linecap:round;stroke-linejoin:miter;stroke-miterlimit:4;stroke-dasharray:none;stroke-dashoffset:0;stroke-opacity:1" />
      <rect
         ry="6.999999"
         rx="7"
         y="363.49997"
         x="427.49994"
         height="28.999996"
         width="29.000011"
         id="rect4164-4-7-5-3-8"
         style="display:inline;opacity:0.07000002;fill:none;fill-opacity:1;stroke:#000000;stroke-width:0.99999982;stroke-linecap:round;stroke-linejoin:miter;stroke-miterlimit:4;stroke-dasharray:none;stroke-dashoffset:0;stroke-opacity:1" />
      <rect
         ry="6"
         rx="6"
         y="364.49994"
         x="428.49994"
         height="26.999998"
         width="27.000011"
         id="rect4164-4-7-5-3"
         style="display:inline;opacity:0.12999998;fill:none;fill-opacity:1;stroke:#000000;stroke-width:0.99999988;stroke-linecap:round;stroke-linejoin:miter;stroke-miterlimit:4;stroke-dasharray:none;stroke-dashoffset:0;stroke-opacity:1" />
      <rect
         ry="5"
         rx="4.9999995"
         y="365.49997"
         x="429.49997"
         height="24.999998"
         width="24.999981"
         id="rect4164-4-7-5"
         style="display:inline;opacity:0.2;fill:none;fill-opacity:1;stroke:#000000;stroke-width:1;stroke-linecap:round;stroke-linejoin:miter;stroke-miterlimit:4;stroke-dasharray:none;stroke-dashoffset:0;stroke-opacity:1" />
      <path
         transform="translate(-6.1035156e-5)"
         id="rect4164-4-7"
         d="M 431.64844,388.30469 C 432.37319,389.0416 433.37997,389.5 434.5,389.5 h 15.00023 c 1.12003,0 2.12681,-0.4584 2.85156,-1.19531 -0.2591,0.12217 -0.5451,0.19531 -0.85156,0.19531 H 432.5 c -0.30646,0 -0.59246,-0.0731 -0.85156,-0.19531 z"
         style="display:inline;opacity:0.25;fill:none;fill-opacity:1;stroke:#000000;stroke-width:1;stroke-linecap:round;stroke-linejoin:miter;stroke-miterlimit:4;stroke-dasharray:none;stroke-dashoffset:0;stroke-opacity:1"
         inkscape:connector-curvature="0"
         sodipodi:nodetypes="csscssc" />
    </g>
    <path
       style="fill:#333333;fill-opacity:1;stroke-width:0.0625"
       d="M 6.153825,28.658268 C 5.3438941,28.400946 4.6797136,27.741416 4.4360478,26.952518 4.3119691,26.550798 4.310075,26.393907 4.310075,16.518027 4.310075,6.5485459 4.3108114,6.489203 4.4392569,6.1079182 4.711403,5.3000649 5.3013631,4.7094784 6.1074897,4.437914 6.4926127,4.3081754 6.5214974,4.3078321 17.05152,4.3078321 c 10.408497,0 10.563659,0.00178 10.965741,0.1259728 0.822445,0.2540276 1.501771,0.9652038 1.730732,1.8118787 0.102234,0.3780511 0.09427,20.2104944 -0.0083,20.5912934 -0.194342,0.721731 -0.72478,1.35076 -1.414605,1.677534 l -0.421297,0.199571 -10.75,0.01181 c -8.5473758,0.0094 -10.8012238,-0.0045 -11,-0.06762 z m 21.821492,-1.051736 c 0.25135,-0.137576 0.558382,-0.444608 0.695958,-0.695957 0.100256,-0.183168 0.108758,-0.876762 0.125369,-10.227743 0.0132,-7.4317661 -8.63e-4,-10.0994056 -0.05427,-10.2942586 -0.09003,-0.3284903 -0.427688,-0.7294748 -0.767145,-0.911022 L 27.716325,5.3390821 h -10.65625 c -10.2775187,0 -10.6640246,0.00414 -10.875,0.1165101 C 5.8789082,5.618662 5.6340763,5.8590526 5.4762261,6.1515821 l -0.1349011,0.25 -0.016374,10.0552459 -0.016374,10.055247 0.1487582,0.324931 c 0.1615059,0.352775 0.5261353,0.70124 0.8613072,0.823125 0.1630354,0.05929 2.593537,0.07391 10.8351826,0.06519 9.920019,-0.01049 10.638037,-0.01838 10.821492,-0.118791 z"
       id="path1250"
       inkscape:connector-curvature="0"
       transform="matrix(0.93749995,0,0,0.93749995,0,1020.3622)" />
    <path
       style="fill:#333333;fill-opacity:1;stroke-width:0.0625"
       d="M 6.153825,28.658178 C 5.3441954,28.401242 4.6797276,27.741461 4.4360478,26.952518 4.311972,26.550807 4.310075,26.393873 4.310075,16.531343 4.310075,7.5481583 4.3203328,6.4830963 4.4097841,6.1785509 4.6488768,5.3645383 5.2821283,4.7159581 6.1101611,4.437014 6.4917641,4.3084613 6.5450561,4.3078321 17.05152,4.3078321 c 10.408497,0 10.563659,0.00178 10.965741,0.1259728 0.686318,0.211982 1.26208,0.7295132 1.598161,1.4365272 l 0.163403,0.34375 v 10.3124999 10.3125 l -0.199571,0.421297 c -0.2583,0.545277 -0.708855,0.995832 -1.254132,1.254132 l -0.421297,0.199571 -10.75,0.01172 c -8.5407216,0.0093 -10.8013786,-0.0046 -11,-0.06762 z m 21.731107,-1.019432 c 0.257588,-0.115093 0.648905,-0.494423 0.778094,-0.754258 0.111038,-0.223331 0.116558,-0.643309 0.134262,-10.215688 0.01288,-6.9644741 -0.0018,-10.0580566 -0.04858,-10.2317467 -0.09262,-0.3439779 -0.421976,-0.7552985 -0.754056,-0.9417212 l -0.278331,-0.15625 H 17.089629 6.4629325 L 6.1527056,5.4987447 C 5.8035291,5.6784534 5.4720734,6.0707865 5.3754254,6.4187856 5.3321146,6.5747344 5.3111102,9.9320187 5.3117962,16.589082 c 9.769e-4,9.482415 0.00624,9.948949 0.1149876,10.1875 0.2439433,0.535134 0.6126515,0.831723 1.1332912,0.911618 0.1546875,0.02374 4.978125,0.03927 10.71875,0.03452 7.993236,-0.0066 10.476985,-0.02628 10.606107,-0.08397 z"
       id="path1252"
       inkscape:connector-curvature="0"
       transform="matrix(0.93749995,0,0,0.93749995,0,1020.3622)" />
  </g>
</svg>
