<?xml version="1.0" encoding="UTF-8" standalone="no"?>
<!-- Created with Inkscape (http://www.inkscape.org/) -->

<svg
   xmlns:dc="http://purl.org/dc/elements/1.1/"
   xmlns:cc="http://creativecommons.org/ns#"
   xmlns:rdf="http://www.w3.org/1999/02/22-rdf-syntax-ns#"
   xmlns:svg="http://www.w3.org/2000/svg"
   xmlns="http://www.w3.org/2000/svg"
   xmlns:sodipodi="http://sodipodi.sourceforge.net/DTD/sodipodi-0.dtd"
   xmlns:inkscape="http://www.inkscape.org/namespaces/inkscape"
   width="32"
   height="84"
   viewBox="0 0 32 84"
   id="svg5386"
   version="1.1"
   inkscape:version="0.92.3 (2405546, 2018-03-11)"
   sodipodi:docname="modal.svg">
  <defs
     id="defs5388">
    <clipPath
       clipPathUnits="userSpaceOnUse"
       id="clipPath4154">
      <rect
         transform="scale(1,-1)"
         ry="1.5"
         rx="1.5"
         y="-992.36218"
         x="-5.5"
         height="24.500061"
         width="43"
         id="rect4156"
         style="opacity:1;fill:#5294e2;fill-opacity:1;stroke:none;stroke-width:1;stroke-linecap:round;stroke-linejoin:miter;stroke-miterlimit:4;stroke-dasharray:none;stroke-dashoffset:0;stroke-opacity:1" />
    </clipPath>
  </defs>
  <sodipodi:namedview
     id="base"
     pagecolor="#000000"
     bordercolor="#666666"
     borderopacity="1.0"
     inkscape:pageopacity="0"
     inkscape:pageshadow="2"
     inkscape:zoom="7.9999996"
     inkscape:cx="4.209078"
     inkscape:cy="43.043349"
     inkscape:document-units="px"
     inkscape:current-layer="layer1"
     showgrid="true"
     units="px"
     inkscape:snap-bbox="true"
     inkscape:bbox-paths="true"
     inkscape:bbox-nodes="true"
     inkscape:snap-bbox-edge-midpoints="true"
     inkscape:window-width="1920"
     inkscape:window-height="983"
     inkscape:window-x="0"
     inkscape:window-y="27"
     inkscape:window-maximized="1">
    <inkscape:grid
       type="xygrid"
       id="grid5954" />
  </sodipodi:namedview>
  <metadata
     id="metadata5391">
    <rdf:RDF>
      <cc:Work
         rdf:about="">
        <dc:format>image/svg+xml</dc:format>
        <dc:type
           rdf:resource="http://purl.org/dc/dcmitype/StillImage" />
        <dc:title />
      </cc:Work>
    </rdf:RDF>
  </metadata>
  <g
     inkscape:label="Ebene 1"
     inkscape:groupmode="layer"
     id="layer1"
     transform="translate(0,-968.3622)">
    <rect
       style="display:inline;opacity:0.1;fill:none;fill-opacity:1;stroke:#ffffff;stroke-width:0.99999988;stroke-linecap:round;stroke-linejoin:miter;stroke-miterlimit:4;stroke-dasharray:none;stroke-dashoffset:0;stroke-opacity:1"
       id="rect4164-4-3"
       width="23"
       height="73.999352"
       x="4.5"
       y="972.86285"
       rx="2.0000005"
       ry="1.9999999" />
    <rect
       style="display:inline;opacity:1;fill:#32343d;fill-opacity:1;stroke:none;stroke-width:1;stroke-linecap:round;stroke-linejoin:miter;stroke-miterlimit:4;stroke-dasharray:none;stroke-dashoffset:0;stroke-opacity:1"
       id="rect4164"
       width="22"
       height="20.999971"
       x="5"
       y="973.36285"
       rx="1.4"
       ry="0.78232443"
       clip-path="url(#clipPath4154)"
       transform="matrix(1,0,0,1.7895388,0,-768.50844)" />
    <g
       transform="translate(-425.99995,606.36226)"
       id="g4271"
       style="display:inline;opacity:0.64999999">
      <rect
         ry="8"
         rx="8"
         y="362.49994"
         x="426.49994"
         height="83"
         width="31.000011"
         id="rect4164-4-7-5-3-8-8"
         style="display:inline;opacity:0.02;fill:none;fill-opacity:1;stroke:#000000;stroke-width:0.99999988;stroke-linecap:round;stroke-linejoin:miter;stroke-miterlimit:4;stroke-dasharray:none;stroke-dashoffset:0;stroke-opacity:1" />
      <rect
         ry="6.9999981"
         rx="7"
         y="363.49997"
         x="427.49994"
         height="80.999969"
         width="29.000011"
         id="rect4164-4-7-5-3-8"
         style="display:inline;opacity:0.07;fill:none;fill-opacity:1;stroke:#000000;stroke-width:0.99999982;stroke-linecap:round;stroke-linejoin:miter;stroke-miterlimit:4;stroke-dasharray:none;stroke-dashoffset:0;stroke-opacity:1" />
      <rect
         ry="6.0000005"
         rx="6"
         y="364.49997"
         x="428.49994"
         height="79"
         width="27.000011"
         id="rect4164-4-7-5-3"
         style="display:inline;opacity:0.13;fill:none;fill-opacity:1;stroke:#000000;stroke-width:0.99999988;stroke-linecap:round;stroke-linejoin:miter;stroke-miterlimit:4;stroke-dasharray:none;stroke-dashoffset:0;stroke-opacity:1" />
      <rect
         ry="5"
         rx="4.9999995"
         y="365.49997"
         x="429.49997"
         height="76.999969"
         width="24.999981"
         id="rect4164-4-7-5"
         style="display:inline;opacity:0.2;fill:none;fill-opacity:1;stroke:#000000;stroke-width:1;stroke-linecap:round;stroke-linejoin:miter;stroke-miterlimit:4;stroke-dasharray:none;stroke-dashoffset:0;stroke-opacity:1" />
      <path
         id="rect4164-4-7"
         d="m 431.64838,440.30463 c 0.72475,0.73691 1.73153,1.19531 2.85156,1.19531 l 15.00023,0 c 1.12003,0 2.12681,-0.4584 2.85156,-1.19531 -0.2591,0.12217 -0.5451,0.19531 -0.85156,0.19531 l -19.00023,0 c -0.30646,0 -0.59246,-0.0731 -0.85156,-0.19531 z"
         style="display:inline;opacity:0.25;fill:none;fill-opacity:1;stroke:#000000;stroke-width:1;stroke-linecap:round;stroke-linejoin:miter;stroke-miterlimit:4;stroke-dasharray:none;stroke-dashoffset:0;stroke-opacity:1"
         inkscape:connector-curvature="0"
         sodipodi:nodetypes="csscssc" />
    </g>
    <path
       style="fill:#4d4d4d;fill-opacity:1;stroke-width:0.125"
       d="M 5.0389697,22.383883 5.071578,5.8111161 5.4798001,5.4463824 5.8880222,5.0816487 H 15.983237 c 9.13081,0 10.123017,0.019473 10.386233,0.2038366 0.665285,0.465984 0.639609,-0.2306933 0.639609,17.3546497 V 38.95665 H 16.00772 5.0063613 Z"
       id="path253"
       inkscape:connector-curvature="0"
       transform="translate(0,968.3622)" />
    <path
       style="fill:#333333;fill-opacity:1;stroke-width:0.125"
       d="M 5.3852919,78.677525 C 5.0559268,78.510969 4.6696439,78.170716 4.4482499,77.852141 L 4.071578,77.31013 4.0394657,41.806199 C 4.0171006,17.079003 4.0475986,6.1528086 4.1399413,5.8098741 4.3100677,5.1780728 5.0210729,4.3914932 5.6110741,4.1823712 5.9750243,4.0533715 8.1289628,4.0191487 15.884079,4.0191487 c 5.396875,0 10.014284,0.043019 10.26091,0.095598 0.246625,0.052579 0.682166,0.2956861 0.96787,0.540238 0.978635,0.8376746 0.90177,-2.4574833 0.865836,37.1178843 l -0.03212,35.371283 -0.283719,0.53111 c -0.156046,0.292112 -0.517538,0.685862 -0.803316,0.875 l -0.519595,0.34389 -10.197144,0.03337 -10.1971429,0.03337 z M 26.296718,77.78184 c 0.759577,-0.514815 0.712361,0.798796 0.712361,-19.818981 V 39.08165 H 16.007892 5.0067051 l 0.032436,19.052443 0.032436,19.052442 0.3056124,0.325297 c 0.1680868,0.178914 0.4774618,0.37592 0.6875001,0.437792 0.2147697,0.06327 4.6485874,0.103093 10.1318884,0.09101 9.35055,-0.0206 9.764345,-0.0312 10.100139,-0.258795 z M 27.008612,22.4879 C 27.008112,6.397012 27.002574,6.0100036 26.765114,5.6205696 26.601809,5.3527435 26.366178,5.1786967 26.046832,5.0900167 25.383963,4.9059434 6.4092821,4.9059043 5.9234656,5.0899752 5.7299275,5.1633048 5.4450156,5.3418601 5.2903281,5.4867645 L 5.009078,5.7502272 V 22.353438 38.95665 h 11.000001 11 l -5e-4,-16.46875 z"
       id="path257"
       inkscape:connector-curvature="0"
       transform="translate(0,968.3622)" />
  </g>
</svg>
